<svg width="42" height="24" viewBox="0 0 42 24" fill="none" xmlns="http://www.w3.org/2000/svg"><g clip-path="url(#clip0_35_3599)"><path fill-rule="evenodd" clip-rule="evenodd" d="M32.5484 4.88136c-.7034 2.6138-1.4037 5.22834-2.0896 7.84674-.3431 1.3091-.6798 2.6191-1.0748 3.9143-.3836 1.2585-.8547 2.6017-1.5414 3.7447-.7163 1.1929-1.6438 2.1242-2.9273 2.7206-.5132.2382-1.0391.4016-1.5908.5186-.7828.1658-1.5691.2341-2.3646.2791-1.9699.111-6.1488.0944-8.1181.0944l1.2073-4.4745c.9139 0 1.8277.0032 2.7414-.0221.8817-.0246 1.852-.0718 2.7203-.2771.951-.225 1.6685-.611 2.297-1.3847.5725-.7047.9574-1.5841 1.2728-2.4134.576-1.5145 1.1658-3.6829 1.5816-5.2424.4703-1.76538.9223-3.53518 1.3778-5.30424h6.5084zm8.1356-.00004L37.1719 17.8983h-6.5082l3.5119-13.01698h6.5084zM19.2212 0h6.5084c-.6819 2.54091-1.3628 5.08201-2.0525 7.62087-.4806 1.76869-.958 3.53813-1.4797 5.29543-.2276.7661-.4548 1.53-.7531 2.2737-.2397.5975-.5076 1.1291-1.003 1.5755-.37.3334-.7735.5408-1.2434.6886-.6045.1902-1.2155.2599-1.8401.3111-.8982.0736-1.7967.0924-2.6965.1069-2.0694.0333-5.82726.0286-7.89662.0197-.74359-.0033-1.48717-.0078-2.23076-.0214-.53905-.0097-1.07754-.023-1.61584-.0567-.35943-.0227-.71607-.0528-1.07122-.1183-.24098-.0442-.47304-.1037-.69915-.2024-.744698-.3254-1.1242074-.9759-1.1463346-1.768-.01283-.4533.0660098-.8851.1567496-1.3235.128859-.6211.289327-1.2336.448309-1.8468.303459-1.1716.858866-3.33342 1.291746-4.47139.33916-.89178.7871-1.77929 1.63816-2.34381.47582-.31554.97582-.48327 1.52715-.59427.4087-.08219.81945-.1257 1.23391-.15657.69413-.0515 1.38881-.06768 2.08424-.07995.98828-.0173 1.97656-.02101 2.96486-.02399l2.4653-.00335h2.4652l-.8781 3.25419c-1.4652 0-2.9301-.00409-4.3953.00446-.4277.00261-.8548-.00055-1.28206.02734-.15173.00985-.29992.01971-.44663.07103-.19301.06694-.2884.18817-.37319.36221-.12402.25475-.19561.52343-.27464.79231-.12068.41056-.23243.82349-.34436 1.23669-.17237.6365-.34474 1.273-.50837 1.9119-.06043.2365-.11975.473-.1707.7118-.03588.1673-.06824.3341-.08423.5048-.01748.1867-.02287.4109.09018.5842.11491.1759.30923.2168.49052.2431.20491.0299.41019.0364.61621.0425.3373.0103.67461.0118 1.01191.0134.92286.0045 1.84566.0047 2.76846-.0011.4253-.0026.8502-.0056 1.2751-.0227.2926-.0117.5816-.0217.8698-.0915.219-.0529.3903-.1362.5385-.3153.1002-.1212.1657-.2557.2255-.3985.1488-.354.2527-.7205.3611-1.0868.416-1.4052.7907-2.82115 1.1735-4.23543l1.1434-4.24415L19.2212 0z" fill="#fff"/></g><defs><clipPath id="clip0_35_3599"><path fill="#fff" d="M0 0h42v24H0z"/></clipPath></defs></svg>