<svg xmlns="http://www.w3.org/2000/svg" xmlns:xlink="http://www.w3.org/1999/xlink" width="16" height="16" viewBox="0 0 16 16"><defs><path id="a" d="M8.12263087,11.8136125 C5.31938087,11.5610701 3.12263087,9.20579812 3.12263087,6.33759382 C3.12263087,3.30089268 5.58506475,0.839160004 8.62263087,0.839160004 C11.660197,0.839160004 14.1226309,3.30089268 14.1226309,6.33759382 C14.1226309,9.20579812 11.9258809,11.5610701 9.12263087,11.8136125 L9.12263087,16.43291 C8.57034612,16.43291 8.12263087,15.9853222 8.12263087,15.4331948 L8.12263087,11.8136125 L8.12263087,11.8136125 Z M8.62263087,10.8499949 C11.1079122,10.8499949 13.1226309,8.83527629 13.1226309,6.34999491 C13.1226309,3.86471354 11.1079122,1.84999491 8.62263087,1.84999491 C6.1373495,1.84999491 4.12263087,3.86471354 4.12263087,6.34999491 C4.12263087,8.83527629 6.1373495,10.8499949 8.62263087,10.8499949 Z"/></defs><use xlink:href="#a" fill="#FFF" fill-rule="evenodd" transform="rotate(-45 8.623 8.638)"/></svg>