<svg width="16" height="16" viewBox="0 0 16 16" xmlns="http://www.w3.org/2000/svg" xmlns:xlink="http://www.w3.org/1999/xlink"><defs><path d="M8,9 C5.790861,9 4,7.209139 4,5 C4,2.790861 5.790861,1 8,1 C10.209139,1 12,2.790861 12,5 C12,7.209139 10.209139,9 8,9 Z M8,8 C9.65685425,8 11,6.65685425 11,5 C11,3.34314575 9.65685425,2 8,2 C6.34314575,2 5,3.34314575 5,5 C5,6.65685425 6.34314575,8 8,8 Z M1.5,15 L1.5,13.625 C1.5,11.8968495 2.89911016,10.5 4.625,10.5 L11.375,10.5 C13.1008898,10.5 14.5,11.8968495 14.5,13.625 L14.5,15 C13.9477153,15 13.5,14.5530082 13.5,14 L13.5,13.625 C13.5,12.4482419 12.5486051,11.4983842 11.375,11.5 L4.625,11.5 C3.45139491,11.4983842 2.5,12.4482419 2.5,13.625 L2.5,14 C2.5,14.5457371 2.05228475,14.9927289 1.5,15 Z" id="a"/></defs><use fill-opacity=".85" xlink:href="#a" fill-rule="evenodd"/></svg>