<svg xmlns="http://www.w3.org/2000/svg" xmlns:xlink="http://www.w3.org/1999/xlink" width="16" height="16" viewBox="0 0 16 16"><defs><path id="a" d="M8.00458603,9 C5.79544703,9 4.00458603,7.209139 4.00458603,5 C4.00458603,2.790861 5.79544703,1 8.00458603,1 C10.213725,1 12.004586,2.790861 12.004586,5 C12.004586,7.209139 10.213725,9 8.00458603,9 Z M8.00458603,8 C9.66144028,8 11.004586,6.65685425 11.004586,5 C11.004586,3.34314575 9.66144028,2 8.00458603,2 C6.34773178,2 5.00458603,3.34314575 5.00458603,5 C5.00458603,6.65685425 6.34773178,8 8.00458603,8 Z M1.50458603,15 L1.50458603,13.625 C1.50458603,11.8968495 2.90369619,10.5 4.62958603,10.5 L11.379586,10.5 C13.1054759,10.5 14.504586,11.8968495 14.504586,13.625 L14.504586,15 C13.9523013,15 13.504586,14.5530082 13.504586,14 L13.504586,13.625 C13.504586,12.4482419 12.5531911,11.4983842 11.379586,11.5 L4.62958603,11.5 C3.45598094,11.4983842 2.50458603,12.4482419 2.50458603,13.625 L2.50458603,14 C2.50458603,14.5457371 2.05687078,14.9927289 1.50458603,15 Z"/></defs><use xlink:href="#a" fill="#FFF" fill-rule="evenodd"/></svg>